<mxfile host="app.diagrams.net" modified="2023-06-22T16:33:17.930Z" agent="Mozilla/5.0 (Macintosh; Intel Mac OS X 10_15_7) AppleWebKit/537.36 (KHTML, like Gecko) Chrome/114.0.0.0 Safari/537.36" etag="Kl_JS2VO0wQ7BDxRXzig" version="21.5.0" type="device" pages="2">
  <diagram name="Page-1" id="RikKnLmhWO_iKa81v7Vg">
    <mxGraphModel dx="417" dy="610" grid="1" gridSize="10" guides="1" tooltips="1" connect="1" arrows="1" fold="1" page="1" pageScale="1" pageWidth="827" pageHeight="1169" math="0" shadow="0">
      <root>
        <mxCell id="0" />
        <mxCell id="1" parent="0" />
        <mxCell id="Ubv2tb3gwohrMieOdlO1-2" value="Brand" style="swimlane;childLayout=stackLayout;horizontal=1;startSize=50;horizontalStack=0;rounded=1;fontSize=14;fontStyle=0;strokeWidth=2;resizeParent=0;resizeLast=1;shadow=0;dashed=0;align=center;arcSize=4;whiteSpace=wrap;html=1;" parent="1" vertex="1">
          <mxGeometry x="30" y="470" width="160" height="120" as="geometry" />
        </mxCell>
        <mxCell id="Ubv2tb3gwohrMieOdlO1-3" value="- string name&lt;br&gt;- &lt;b&gt;objectId&lt;/b&gt; supplier_id" style="align=left;strokeColor=none;fillColor=none;spacingLeft=4;fontSize=12;verticalAlign=top;resizable=0;rotatable=0;part=1;html=1;" parent="Ubv2tb3gwohrMieOdlO1-2" vertex="1">
          <mxGeometry y="50" width="160" height="70" as="geometry" />
        </mxCell>
        <mxCell id="Ubv2tb3gwohrMieOdlO1-5" value="Client" style="swimlane;childLayout=stackLayout;horizontal=1;startSize=50;horizontalStack=0;rounded=1;fontSize=14;fontStyle=0;strokeWidth=2;resizeParent=0;resizeLast=1;shadow=0;dashed=0;align=center;arcSize=4;whiteSpace=wrap;html=1;" parent="1" vertex="1">
          <mxGeometry x="500" y="190" width="160" height="160" as="geometry" />
        </mxCell>
        <mxCell id="Ubv2tb3gwohrMieOdlO1-6" value="- string name&lt;br&gt;- string surname&lt;br&gt;- string cp&lt;br&gt;- string mail&lt;br&gt;- date register_date&lt;br&gt;- &lt;b&gt;objectId&lt;/b&gt; by_client_id" style="align=left;strokeColor=none;fillColor=none;spacingLeft=4;fontSize=12;verticalAlign=top;resizable=0;rotatable=0;part=1;html=1;" parent="Ubv2tb3gwohrMieOdlO1-5" vertex="1">
          <mxGeometry y="50" width="160" height="110" as="geometry" />
        </mxCell>
        <mxCell id="Ubv2tb3gwohrMieOdlO1-8" value="Employee" style="swimlane;childLayout=stackLayout;horizontal=1;startSize=50;horizontalStack=0;rounded=1;fontSize=14;fontStyle=0;strokeWidth=2;resizeParent=0;resizeLast=1;shadow=0;dashed=0;align=center;arcSize=4;whiteSpace=wrap;html=1;" parent="1" vertex="1">
          <mxGeometry x="770" y="430" width="160" height="90" as="geometry" />
        </mxCell>
        <mxCell id="Ubv2tb3gwohrMieOdlO1-9" value="- string name" style="align=left;strokeColor=none;fillColor=none;spacingLeft=4;fontSize=12;verticalAlign=top;resizable=0;rotatable=0;part=1;html=1;" parent="Ubv2tb3gwohrMieOdlO1-8" vertex="1">
          <mxGeometry y="50" width="160" height="40" as="geometry" />
        </mxCell>
        <mxCell id="Ubv2tb3gwohrMieOdlO1-10" value="Product" style="swimlane;childLayout=stackLayout;horizontal=1;startSize=50;horizontalStack=0;rounded=1;fontSize=14;fontStyle=0;strokeWidth=2;resizeParent=0;resizeLast=1;shadow=0;dashed=0;align=center;arcSize=4;whiteSpace=wrap;html=1;" parent="1" vertex="1">
          <mxGeometry x="270" y="430" width="160" height="171" as="geometry" />
        </mxCell>
        <mxCell id="Ubv2tb3gwohrMieOdlO1-11" value="- &lt;b&gt;objectId &lt;/b&gt;brand_id&lt;br&gt;- int graduation&lt;br&gt;- string frame&lt;br&gt;- string frame_color&lt;br&gt;- string glass_color&lt;br&gt;- int price&lt;br&gt;- &lt;b&gt;objectId &lt;/b&gt;supplier_id" style="align=left;strokeColor=none;fillColor=none;spacingLeft=4;fontSize=12;verticalAlign=top;resizable=0;rotatable=0;part=1;html=1;" parent="Ubv2tb3gwohrMieOdlO1-10" vertex="1">
          <mxGeometry y="50" width="160" height="121" as="geometry" />
        </mxCell>
        <mxCell id="Ubv2tb3gwohrMieOdlO1-12" value="Sale" style="swimlane;childLayout=stackLayout;horizontal=1;startSize=50;horizontalStack=0;rounded=1;fontSize=14;fontStyle=0;strokeWidth=2;resizeParent=0;resizeLast=1;shadow=0;dashed=0;align=center;arcSize=4;whiteSpace=wrap;html=1;" parent="1" vertex="1">
          <mxGeometry x="510" y="430" width="160" height="120" as="geometry" />
        </mxCell>
        <mxCell id="Ubv2tb3gwohrMieOdlO1-13" value="- &lt;b&gt;objectId&lt;/b&gt;&amp;nbsp;client_id&lt;br&gt;- &lt;b&gt;objectId&lt;/b&gt;&amp;nbsp;product_id&lt;br&gt;- &lt;b&gt;objectId &lt;/b&gt;employee_id" style="align=left;strokeColor=none;fillColor=none;spacingLeft=4;fontSize=12;verticalAlign=top;resizable=0;rotatable=0;part=1;html=1;" parent="Ubv2tb3gwohrMieOdlO1-12" vertex="1">
          <mxGeometry y="50" width="160" height="70" as="geometry" />
        </mxCell>
        <mxCell id="Ubv2tb3gwohrMieOdlO1-14" value="Supplier" style="swimlane;childLayout=stackLayout;horizontal=1;startSize=50;horizontalStack=0;rounded=1;fontSize=14;fontStyle=0;strokeWidth=2;resizeParent=0;resizeLast=1;shadow=0;dashed=0;align=center;arcSize=4;whiteSpace=wrap;html=1;" parent="1" vertex="1">
          <mxGeometry x="30" y="154" width="160" height="232" as="geometry" />
        </mxCell>
        <mxCell id="Ubv2tb3gwohrMieOdlO1-15" value="- string name&lt;br&gt;- string phone&lt;br&gt;- string fax&lt;br&gt;- string nif&lt;br&gt;- &lt;b&gt;object &lt;/b&gt;direction&lt;br&gt;&lt;blockquote style=&quot;margin: 0 0 0 40px; border: none; padding: 0px;&quot;&gt;- string street&lt;br&gt;- int number&lt;br&gt;- int pis&lt;br&gt;- int porta&lt;br&gt;- string ciutat&lt;br&gt;- string codi_postal&lt;br&gt;- string pais&lt;/blockquote&gt;&lt;blockquote style=&quot;margin: 0 0 0 40px; border: none; padding: 0px;&quot;&gt;&lt;br&gt;&lt;/blockquote&gt;&lt;blockquote style=&quot;margin: 0 0 0 40px; border: none; padding: 0px;&quot;&gt;&lt;br&gt;&lt;/blockquote&gt;&lt;blockquote style=&quot;margin: 0 0 0 40px; border: none; padding: 0px;&quot;&gt;&lt;br&gt;&lt;/blockquote&gt;" style="align=left;strokeColor=none;fillColor=none;spacingLeft=4;fontSize=12;verticalAlign=top;resizable=0;rotatable=0;part=1;html=1;" parent="Ubv2tb3gwohrMieOdlO1-14" vertex="1">
          <mxGeometry y="50" width="160" height="182" as="geometry" />
        </mxCell>
        <mxCell id="Ubv2tb3gwohrMieOdlO1-21" value="" style="fontSize=12;html=1;endArrow=ERoneToMany;rounded=0;exitX=0.5;exitY=1;exitDx=0;exitDy=0;" parent="1" source="Ubv2tb3gwohrMieOdlO1-15" edge="1">
          <mxGeometry width="100" height="100" relative="1" as="geometry">
            <mxPoint x="110" y="380" as="sourcePoint" />
            <mxPoint x="110" y="470" as="targetPoint" />
          </mxGeometry>
        </mxCell>
        <mxCell id="Ubv2tb3gwohrMieOdlO1-23" value="" style="fontSize=12;html=1;endArrow=ERoneToMany;rounded=0;exitX=1;exitY=0.25;exitDx=0;exitDy=0;entryX=-0.013;entryY=0.175;entryDx=0;entryDy=0;entryPerimeter=0;" parent="1" source="Ubv2tb3gwohrMieOdlO1-2" target="Ubv2tb3gwohrMieOdlO1-11" edge="1">
          <mxGeometry width="100" height="100" relative="1" as="geometry">
            <mxPoint x="250" y="396" as="sourcePoint" />
            <mxPoint x="250" y="480" as="targetPoint" />
          </mxGeometry>
        </mxCell>
        <mxCell id="Ubv2tb3gwohrMieOdlO1-25" value="" style="fontSize=12;html=1;endArrow=ERoneToMany;rounded=0;exitX=1;exitY=0.25;exitDx=0;exitDy=0;entryX=-0.013;entryY=0.175;entryDx=0;entryDy=0;entryPerimeter=0;" parent="1" edge="1">
          <mxGeometry width="100" height="100" relative="1" as="geometry">
            <mxPoint x="430" y="500" as="sourcePoint" />
            <mxPoint x="508" y="501" as="targetPoint" />
          </mxGeometry>
        </mxCell>
        <mxCell id="Ubv2tb3gwohrMieOdlO1-28" value="" style="fontSize=12;html=1;endArrow=ERoneToMany;rounded=0;entryX=0.447;entryY=-0.027;entryDx=0;entryDy=0;entryPerimeter=0;" parent="1" source="Ubv2tb3gwohrMieOdlO1-6" target="Ubv2tb3gwohrMieOdlO1-12" edge="1">
          <mxGeometry width="100" height="100" relative="1" as="geometry">
            <mxPoint x="410" y="370" as="sourcePoint" />
            <mxPoint x="488" y="371" as="targetPoint" />
          </mxGeometry>
        </mxCell>
        <mxCell id="Ubv2tb3gwohrMieOdlO1-29" value="" style="fontSize=12;html=1;endArrow=ERoneToMany;rounded=0;exitX=-0.011;exitY=0.372;exitDx=0;exitDy=0;exitPerimeter=0;" parent="1" source="Ubv2tb3gwohrMieOdlO1-8" edge="1">
          <mxGeometry width="100" height="100" relative="1" as="geometry">
            <mxPoint x="710" y="360" as="sourcePoint" />
            <mxPoint x="670" y="460" as="targetPoint" />
          </mxGeometry>
        </mxCell>
      </root>
    </mxGraphModel>
  </diagram>
  <diagram id="iO7vd-bCkET8vyP7hP44" name="Page-2">
    <mxGraphModel dx="1005" dy="837" grid="0" gridSize="10" guides="1" tooltips="1" connect="1" arrows="1" fold="1" page="0" pageScale="1" pageWidth="827" pageHeight="1169" math="0" shadow="0">
      <root>
        <mxCell id="0" />
        <mxCell id="1" parent="0" />
        <mxCell id="8FUnSEU-yJOaARs7xYMw-14" value="Client" style="swimlane;childLayout=stackLayout;horizontal=1;startSize=50;horizontalStack=0;rounded=1;fontSize=14;fontStyle=0;strokeWidth=2;resizeParent=0;resizeLast=1;shadow=0;dashed=0;align=center;arcSize=4;whiteSpace=wrap;html=1;" vertex="1" parent="1">
          <mxGeometry x="778" y="61" width="156" height="163" as="geometry" />
        </mxCell>
        <mxCell id="8FUnSEU-yJOaARs7xYMw-15" value="objectId _id&lt;br&gt;string name&lt;br&gt;string surname&lt;br&gt;string direction&lt;br&gt;&lt;b&gt;bjectId&lt;/b&gt;&amp;nbsp;location_id&lt;br&gt;string phone" style="align=left;strokeColor=none;fillColor=none;spacingLeft=4;fontSize=12;verticalAlign=top;resizable=0;rotatable=0;part=1;html=1;" vertex="1" parent="8FUnSEU-yJOaARs7xYMw-14">
          <mxGeometry y="50" width="156" height="113" as="geometry" />
        </mxCell>
        <mxCell id="8FUnSEU-yJOaARs7xYMw-16" value="Employee" style="swimlane;childLayout=stackLayout;horizontal=1;startSize=50;horizontalStack=0;rounded=1;fontSize=14;fontStyle=0;strokeWidth=2;resizeParent=0;resizeLast=1;shadow=0;dashed=0;align=center;arcSize=4;whiteSpace=wrap;html=1;" vertex="1" parent="1">
          <mxGeometry x="262.5" y="474" width="194" height="162" as="geometry" />
        </mxCell>
        <mxCell id="8FUnSEU-yJOaARs7xYMw-17" value="objectId _id&lt;br&gt;string name&lt;br&gt;string surname&lt;br&gt;string nif&lt;br&gt;string enum section &lt;br&gt;&lt;span style=&quot;&quot;&gt;&lt;span style=&quot;white-space: pre;&quot;&gt;&amp;nbsp;&amp;nbsp;&amp;nbsp;&amp;nbsp;&lt;/span&gt;&lt;/span&gt;[kitcken, delivery]&lt;br&gt;&lt;b&gt;onjectId &lt;/b&gt;pizzeria_shop_id" style="align=left;strokeColor=none;fillColor=none;spacingLeft=4;fontSize=12;verticalAlign=top;resizable=0;rotatable=0;part=1;html=1;" vertex="1" parent="8FUnSEU-yJOaARs7xYMw-16">
          <mxGeometry y="50" width="194" height="112" as="geometry" />
        </mxCell>
        <mxCell id="8FUnSEU-yJOaARs7xYMw-20" value="Location" style="swimlane;childLayout=stackLayout;horizontal=1;startSize=50;horizontalStack=0;rounded=1;fontSize=14;fontStyle=0;strokeWidth=2;resizeParent=0;resizeLast=1;shadow=0;dashed=0;align=center;arcSize=4;whiteSpace=wrap;html=1;" vertex="1" parent="1">
          <mxGeometry x="774" y="327" width="160" height="128" as="geometry" />
        </mxCell>
        <mxCell id="8FUnSEU-yJOaARs7xYMw-21" value="objectId _id&lt;br&gt;string name&lt;br&gt;&lt;b&gt;bjectId &lt;/b&gt;region_id" style="align=left;strokeColor=none;fillColor=none;spacingLeft=4;fontSize=12;verticalAlign=top;resizable=0;rotatable=0;part=1;html=1;" vertex="1" parent="8FUnSEU-yJOaARs7xYMw-20">
          <mxGeometry y="50" width="160" height="78" as="geometry" />
        </mxCell>
        <mxCell id="8FUnSEU-yJOaARs7xYMw-24" value="Order" style="swimlane;childLayout=stackLayout;horizontal=1;startSize=50;horizontalStack=0;rounded=1;fontSize=14;fontStyle=0;strokeWidth=2;resizeParent=0;resizeLast=1;shadow=0;dashed=0;align=center;arcSize=4;whiteSpace=wrap;html=1;" vertex="1" parent="1">
          <mxGeometry x="268" y="61" width="175" height="266" as="geometry" />
        </mxCell>
        <mxCell id="8FUnSEU-yJOaARs7xYMw-53" value="" style="fontSize=12;html=1;endArrow=ERoneToMany;rounded=0;exitX=-0.012;exitY=0.171;exitDx=0;exitDy=0;exitPerimeter=0;" edge="1" parent="8FUnSEU-yJOaARs7xYMw-24" source="8FUnSEU-yJOaARs7xYMw-25">
          <mxGeometry width="100" height="100" relative="1" as="geometry">
            <mxPoint x="258" y="83" as="sourcePoint" />
            <mxPoint x="-73" y="85" as="targetPoint" />
          </mxGeometry>
        </mxCell>
        <mxCell id="8FUnSEU-yJOaARs7xYMw-25" value="objectId _id&lt;br&gt;date order_datetime&lt;br&gt;string enum pick_restaurant&lt;br&gt;&lt;span style=&quot;&quot;&gt;&lt;span style=&quot;white-space: pre;&quot;&gt;&amp;nbsp;&amp;nbsp;&amp;nbsp;&amp;nbsp;&lt;/span&gt;&lt;/span&gt;[pickup, restaurant]&lt;br&gt;int amount_pizza&lt;br&gt;int amount_hamburguer&lt;br&gt;int amount amount_drink&lt;br&gt;&lt;b&gt;objectId &lt;/b&gt;employee_id&lt;br&gt;&lt;b&gt;objectd &lt;/b&gt;employee_delivery_id&lt;br&gt;&lt;b&gt;objectId &lt;/b&gt;pizzeria_shop_id&lt;br&gt;&lt;b&gt;objectId &lt;/b&gt;client_id&lt;br&gt;int total_price" style="align=left;strokeColor=none;fillColor=none;spacingLeft=4;fontSize=12;verticalAlign=top;resizable=0;rotatable=0;part=1;html=1;" vertex="1" parent="8FUnSEU-yJOaARs7xYMw-24">
          <mxGeometry y="50" width="175" height="216" as="geometry" />
        </mxCell>
        <mxCell id="8FUnSEU-yJOaARs7xYMw-29" value="Pizza_category" style="swimlane;childLayout=stackLayout;horizontal=1;startSize=50;horizontalStack=0;rounded=1;fontSize=14;fontStyle=0;strokeWidth=2;resizeParent=0;resizeLast=1;shadow=0;dashed=0;align=center;arcSize=4;whiteSpace=wrap;html=1;" vertex="1" parent="1">
          <mxGeometry x="48" y="535" width="134" height="135" as="geometry" />
        </mxCell>
        <mxCell id="8FUnSEU-yJOaARs7xYMw-30" value="objectId _id&lt;br&gt;string name" style="align=left;strokeColor=none;fillColor=none;spacingLeft=4;fontSize=12;verticalAlign=top;resizable=0;rotatable=0;part=1;html=1;" vertex="1" parent="8FUnSEU-yJOaARs7xYMw-29">
          <mxGeometry y="50" width="134" height="85" as="geometry" />
        </mxCell>
        <mxCell id="8FUnSEU-yJOaARs7xYMw-32" value="Pizzeria_shop" style="swimlane;childLayout=stackLayout;horizontal=1;startSize=50;horizontalStack=0;rounded=1;fontSize=14;fontStyle=0;strokeWidth=2;resizeParent=0;resizeLast=1;shadow=0;dashed=0;align=center;arcSize=4;whiteSpace=wrap;html=1;" vertex="1" parent="1">
          <mxGeometry x="529" y="331" width="158" height="170" as="geometry" />
        </mxCell>
        <mxCell id="8FUnSEU-yJOaARs7xYMw-33" value="objectId _id&lt;br&gt;string direction&lt;br&gt;int cp&lt;br&gt;string location&lt;br&gt;string province" style="align=left;strokeColor=none;fillColor=none;spacingLeft=4;fontSize=12;verticalAlign=top;resizable=0;rotatable=0;part=1;html=1;" vertex="1" parent="8FUnSEU-yJOaARs7xYMw-32">
          <mxGeometry y="50" width="158" height="120" as="geometry" />
        </mxCell>
        <mxCell id="8FUnSEU-yJOaARs7xYMw-34" value="product_order" style="swimlane;childLayout=stackLayout;horizontal=1;startSize=50;horizontalStack=0;rounded=1;fontSize=14;fontStyle=0;strokeWidth=2;resizeParent=0;resizeLast=1;shadow=0;dashed=0;align=center;arcSize=4;whiteSpace=wrap;html=1;" vertex="1" parent="1">
          <mxGeometry x="35" y="72" width="160" height="120" as="geometry" />
        </mxCell>
        <mxCell id="8FUnSEU-yJOaARs7xYMw-35" value="objectId _id&lt;br&gt;objectId&amp;nbsp; product_id" style="align=left;strokeColor=none;fillColor=none;spacingLeft=4;fontSize=12;verticalAlign=top;resizable=0;rotatable=0;part=1;html=1;" vertex="1" parent="8FUnSEU-yJOaARs7xYMw-34">
          <mxGeometry y="50" width="160" height="70" as="geometry" />
        </mxCell>
        <mxCell id="8FUnSEU-yJOaARs7xYMw-37" value="Product" style="swimlane;childLayout=stackLayout;horizontal=1;startSize=50;horizontalStack=0;rounded=1;fontSize=14;fontStyle=0;strokeWidth=2;resizeParent=0;resizeLast=1;shadow=0;dashed=0;align=center;arcSize=4;whiteSpace=wrap;html=1;" vertex="1" parent="1">
          <mxGeometry x="10" y="290" width="212" height="168" as="geometry" />
        </mxCell>
        <mxCell id="8FUnSEU-yJOaARs7xYMw-38" value="objectId _id&lt;br&gt;string name&lt;br&gt;string enum categoria&lt;br&gt;&lt;span style=&quot;white-space: pre;&quot;&gt;&#x9;&lt;/span&gt;&#39;[Pizza&#39;, &#39;Hamburguer&#39;, &#39;Drink&#39;]&lt;br&gt;objectId pizza_category&lt;br&gt;string description&lt;br&gt;string image&lt;br&gt;int price" style="align=left;strokeColor=none;fillColor=none;spacingLeft=4;fontSize=12;verticalAlign=top;resizable=0;rotatable=0;part=1;html=1;" vertex="1" parent="8FUnSEU-yJOaARs7xYMw-37">
          <mxGeometry y="50" width="212" height="118" as="geometry" />
        </mxCell>
        <mxCell id="8FUnSEU-yJOaARs7xYMw-39" value="province" style="swimlane;childLayout=stackLayout;horizontal=1;startSize=50;horizontalStack=0;rounded=1;fontSize=14;fontStyle=0;strokeWidth=2;resizeParent=0;resizeLast=1;shadow=0;dashed=0;align=center;arcSize=4;whiteSpace=wrap;html=1;" vertex="1" parent="1">
          <mxGeometry x="776" y="542.5" width="160" height="120" as="geometry" />
        </mxCell>
        <mxCell id="8FUnSEU-yJOaARs7xYMw-40" value="objectId _id&lt;br&gt;string name" style="align=left;strokeColor=none;fillColor=none;spacingLeft=4;fontSize=12;verticalAlign=top;resizable=0;rotatable=0;part=1;html=1;" vertex="1" parent="8FUnSEU-yJOaARs7xYMw-39">
          <mxGeometry y="50" width="160" height="70" as="geometry" />
        </mxCell>
        <mxCell id="8FUnSEU-yJOaARs7xYMw-44" value="" style="fontSize=12;html=1;endArrow=ERoneToMany;rounded=0;entryX=0.5;entryY=1;entryDx=0;entryDy=0;exitX=0.5;exitY=0;exitDx=0;exitDy=0;" edge="1" parent="1" source="8FUnSEU-yJOaARs7xYMw-29" target="8FUnSEU-yJOaARs7xYMw-38">
          <mxGeometry width="100" height="100" relative="1" as="geometry">
            <mxPoint x="260" y="461" as="sourcePoint" />
            <mxPoint x="360" y="361" as="targetPoint" />
          </mxGeometry>
        </mxCell>
        <mxCell id="8FUnSEU-yJOaARs7xYMw-45" value="" style="fontSize=12;html=1;endArrow=ERoneToMany;rounded=0;entryX=0.5;entryY=0;entryDx=0;entryDy=0;exitX=0.5;exitY=1;exitDx=0;exitDy=0;" edge="1" parent="1" source="8FUnSEU-yJOaARs7xYMw-35" target="8FUnSEU-yJOaARs7xYMw-37">
          <mxGeometry width="100" height="100" relative="1" as="geometry">
            <mxPoint x="142" y="290" as="sourcePoint" />
            <mxPoint x="141" y="213" as="targetPoint" />
          </mxGeometry>
        </mxCell>
        <mxCell id="8FUnSEU-yJOaARs7xYMw-46" value="" style="fontSize=12;html=1;endArrow=ERoneToMany;rounded=0;entryX=0.25;entryY=1;entryDx=0;entryDy=0;exitX=0.25;exitY=0;exitDx=0;exitDy=0;" edge="1" parent="1" source="8FUnSEU-yJOaARs7xYMw-16" target="8FUnSEU-yJOaARs7xYMw-25">
          <mxGeometry width="100" height="100" relative="1" as="geometry">
            <mxPoint x="298" y="360" as="sourcePoint" />
            <mxPoint x="297" y="458" as="targetPoint" />
          </mxGeometry>
        </mxCell>
        <mxCell id="8FUnSEU-yJOaARs7xYMw-48" value="" style="fontSize=12;html=1;endArrow=ERoneToMany;rounded=0;entryX=0.25;entryY=1;entryDx=0;entryDy=0;exitX=0;exitY=0;exitDx=0;exitDy=0;edgeStyle=elbowEdgeStyle;elbow=vertical;" edge="1" parent="1" source="8FUnSEU-yJOaARs7xYMw-33">
          <mxGeometry width="100" height="100" relative="1" as="geometry">
            <mxPoint x="389" y="474" as="sourcePoint" />
            <mxPoint x="390" y="327" as="targetPoint" />
          </mxGeometry>
        </mxCell>
        <mxCell id="8FUnSEU-yJOaARs7xYMw-49" value="" style="fontSize=12;html=1;endArrow=ERoneToMany;rounded=0;entryX=0.25;entryY=1;entryDx=0;entryDy=0;" edge="1" parent="1">
          <mxGeometry width="100" height="100" relative="1" as="geometry">
            <mxPoint x="839" y="325" as="sourcePoint" />
            <mxPoint x="839" y="224" as="targetPoint" />
          </mxGeometry>
        </mxCell>
        <mxCell id="8FUnSEU-yJOaARs7xYMw-50" value="" style="fontSize=12;html=1;endArrow=ERoneToMany;rounded=0;entryX=0.25;entryY=1;entryDx=0;entryDy=0;" edge="1" parent="1">
          <mxGeometry width="100" height="100" relative="1" as="geometry">
            <mxPoint x="851" y="536" as="sourcePoint" />
            <mxPoint x="851" y="455" as="targetPoint" />
          </mxGeometry>
        </mxCell>
        <mxCell id="8FUnSEU-yJOaARs7xYMw-51" value="" style="fontSize=12;html=1;endArrow=ERoneToMany;rounded=0;entryX=1;entryY=0.25;entryDx=0;entryDy=0;exitX=-0.009;exitY=0.372;exitDx=0;exitDy=0;exitPerimeter=0;" edge="1" parent="1">
          <mxGeometry width="100" height="100" relative="1" as="geometry">
            <mxPoint x="772.5599999999997" y="408.616" as="sourcePoint" />
            <mxPoint x="687" y="407.5" as="targetPoint" />
          </mxGeometry>
        </mxCell>
        <mxCell id="8FUnSEU-yJOaARs7xYMw-52" value="" style="fontSize=12;html=1;endArrow=ERoneToMany;rounded=0;exitX=-0.025;exitY=0.622;exitDx=0;exitDy=0;exitPerimeter=0;" edge="1" parent="1" source="8FUnSEU-yJOaARs7xYMw-15">
          <mxGeometry width="100" height="100" relative="1" as="geometry">
            <mxPoint x="528.9999999999998" y="184.11599999999999" as="sourcePoint" />
            <mxPoint x="443" y="183" as="targetPoint" />
          </mxGeometry>
        </mxCell>
        <mxCell id="8FUnSEU-yJOaARs7xYMw-54" value="" style="fontSize=12;html=1;endArrow=ERoneToMany;rounded=0;entryX=1.031;entryY=0.393;entryDx=0;entryDy=0;exitX=0.5;exitY=1;exitDx=0;exitDy=0;entryPerimeter=0;elbow=vertical;" edge="1" parent="1" source="8FUnSEU-yJOaARs7xYMw-32" target="8FUnSEU-yJOaARs7xYMw-17">
          <mxGeometry width="100" height="100" relative="1" as="geometry">
            <mxPoint x="631" y="616" as="sourcePoint" />
            <mxPoint x="492" y="562" as="targetPoint" />
          </mxGeometry>
        </mxCell>
      </root>
    </mxGraphModel>
  </diagram>
</mxfile>
